<svg xmlns="http://www.w3.org/2000/svg" xmlns:xlink="http://www.w3.org/1999/xlink" viewBox="0 0 48 48"><path fill="#7cb342" d="M44,24c0,2.558-0.48,5.004-1.356,7.253l-5.04,4.539l-4.914,6.227C30.062,43.288,27.114,44,24,44 C12.954,44,4,35.046,4,24S12.954,4,24,4S44,12.954,44,24z"/><path fill="#dcedc8" d="M31.114 38.335c-.691.343-1.414.64-2.157.882l3.734 2.801c.662-.319 1.3-.673 1.919-1.061L31.114 38.335zM36 40c.804-.605 1.58-1.283 2.283-2H36V40zM40.5 33c.439 0 .889.041 1.308.114.311-.606.588-1.221.837-1.861C41.96 31.095 41.231 31 40.5 31h-2.108c-.339.694-.733 1.367-1.165 2H40.5z"/><path fill="#fff" d="M24 8A16 16 0 1 0 24 40A16 16 0 1 0 24 8Z"/><path d="M23 11H25V24H23z"/><path d="M22.615 20.065H31.814999999999998V22.365000000000002H22.615z" transform="rotate(-45.001 27.215 21.215)"/><path d="M24 22A2 2 0 1 0 24 26A2 2 0 1 0 24 22Z"/><path fill="#8bc34a" d="M24 23A1 1 0 1 0 24 25A1 1 0 1 0 24 23Z"/><path fill="#e91e63" d="M40.5,33H35v5h5.5c1.381,0,2.5,1.119,2.5,2.5c0,1.381-1.119,2.5-2.5,2.5H39v5h1.5 c4.142,0,7.5-3.358,7.5-7.5S44.642,33,40.5,33z"/><path fill="#e91e63" d="M36 29L28 36 36 42z"/></svg>